<svg width="59" height="88" viewBox="0 0 59 88" fill="none" xmlns="http://www.w3.org/2000/svg">
<path d="M15 63.5566V43.5264C15 38.6385 15.8063 34.7164 17.4188 31.7602C20.2406 26.5867 24.1543 24 29.1598 24C34.182 24 38.0957 26.5867 40.9008 31.7602C42.5133 34.7164 43.3195 38.6385 43.3195 43.5264C43.3195 48.3303 42.5133 52.2523 40.9008 55.2926C38.6332 59.559 35.677 62.3137 32.032 63.5566H31.7801L29.8904 59.8025C32.8803 58.3916 35.1059 56.2332 36.5672 53.3273C37.7094 51.0934 38.2805 47.8264 38.2805 43.5264C38.2805 39.26 37.7094 35.993 36.5672 33.7254C34.7531 30.0973 32.284 28.2832 29.1598 28.2832C26.0355 28.2832 23.5664 30.0973 21.7523 33.7254C20.6102 35.993 20.0391 39.26 20.0391 43.5264V61.2891L15.252 63.5566H15Z" fill="black"/>
<path d="M16 0.5C7.43959 0.5 0.5 7.43959 0.5 16V72C0.5 80.5604 7.43959 87.5 16 87.5H43C51.5604 87.5 58.5 80.5604 58.5 72V16C58.5 7.43959 51.5604 0.5 43 0.5H16Z" stroke="black"/>
</svg>
