<svg width="57" height="86" viewBox="0 0 57 86" fill="none" xmlns="http://www.w3.org/2000/svg">
<path fill-rule="evenodd" clip-rule="evenodd" d="M15 0C6.71573 0 0 6.71573 0 15V71C0 79.2843 6.71573 86 15 86H42C50.2843 86 57 79.2843 57 71V15C57 6.71573 50.2843 0 42 0H15ZM14 42.5264V62.5566H14.252L19.0391 60.2891V42.5264C19.0391 38.26 19.6102 34.993 20.7523 32.7254C22.5664 29.0973 25.0355 27.2832 28.1598 27.2832C31.284 27.2832 33.7531 29.0973 35.5672 32.7254C36.7094 34.993 37.2805 38.26 37.2805 42.5264C37.2805 46.8264 36.7094 50.0934 35.5672 52.3273C34.1059 55.2332 31.8803 57.3916 28.8904 58.8025L30.7801 62.5566H31.032C34.677 61.3137 37.6332 58.559 39.9008 54.2926C41.5133 51.2523 42.3195 47.3303 42.3195 42.5264C42.3195 37.6385 41.5133 33.7164 39.9008 30.7602C37.0957 25.5867 33.182 23 28.1598 23C23.1543 23 19.2406 25.5867 16.4188 30.7602C14.8062 33.7164 14 37.6385 14 42.5264Z" fill="black"/>
</svg>
