<svg width="125" height="33" viewBox="0 0 125 33" fill="none" xmlns="http://www.w3.org/2000/svg">
<path fill-rule="evenodd" clip-rule="evenodd" d="M8 0C3.58172 0 0 3.58172 0 8V25C0 29.4183 3.58172 33 8 33H25C29.4183 33 33 29.4183 33 25V8C33 3.58172 29.4183 0 25 0H8ZM17.6293 17.0897V24.6954H14.5537V17.0929H12V14.1152H14.5537V11.9235C14.5537 9.38286 16.1062 8 18.3729 8C19.4589 8 20.3917 8.08154 20.6624 8.11741V10.7722H19.1002C17.8674 10.7722 17.6293 11.356 17.6293 12.2171V14.112H20.5776L20.1928 17.0897H17.6293Z" fill="black"/>
<path fill-rule="evenodd" clip-rule="evenodd" d="M54 0C49.5817 0 46 3.58172 46 8V25C46 29.4183 49.5817 33 54 33H71C75.4183 33 79 29.4183 79 25V8C79 3.58172 75.4183 0 71 0H54ZM62.3493 18.0192V15.1556H70.2355C70.3073 15.5698 70.366 15.9906 70.366 16.5385C70.366 21.31 67.1697 24.6986 62.3493 24.6986C57.7344 24.6986 54 20.9643 54 16.3493C54 11.7344 57.7344 8 62.3493 8C64.603 8 66.4881 8.82515 67.9427 10.1819L65.6793 12.3638C65.0563 11.767 63.9703 11.0788 62.3493 11.0788C59.5021 11.0788 57.1734 13.4368 57.1734 16.3493C57.1734 19.2618 59.4988 21.6198 62.3493 21.6198C65.6532 21.6198 66.8925 19.2487 67.0849 18.0192H62.3493Z" fill="black"/>
<path fill-rule="evenodd" clip-rule="evenodd" d="M100 0C95.5817 0 92 3.58172 92 8V25C92 29.4183 95.5817 33 100 33H117C121.418 33 125 29.4183 125 25V8C125 3.58172 121.418 0 117 0H100ZM111.777 23.2591H114.256L114.253 18.8789C114.253 16.7296 113.789 15.0761 111.278 15.0761C110.071 15.0761 109.263 15.7382 108.93 16.3644H108.897V15.275H106.516V23.2591H108.995V19.3094C108.995 18.269 109.194 17.2613 110.486 17.2613C111.758 17.2613 111.777 18.4517 111.777 19.3779V23.2591ZM102.283 12.7441C102.283 13.5367 102.922 14.1824 103.721 14.1824C104.514 14.1824 105.16 13.5367 105.16 12.7441C105.16 11.9516 104.517 11.3058 103.721 11.3058C102.926 11.3058 102.283 11.9516 102.283 12.7441ZM102.479 23.2591H104.964V15.275H102.479V23.2591ZM101.236 9H115.495C116.174 9 116.731 9.53814 116.731 10.2067V24.5245C116.731 25.1931 116.174 25.7312 115.492 25.7312H101.236C100.551 25.7312 100 25.1898 100 24.5245V10.2067C100 9.53814 100.554 9 101.236 9Z" fill="black"/>
</svg>
