<svg width="38" height="146" viewBox="0 0 38 146" fill="none" xmlns="http://www.w3.org/2000/svg">
<path fill-rule="evenodd" clip-rule="evenodd" d="M10.5 3.5C6.08172 3.5 2.5 7.08172 2.5 11.5V28.5C2.5 32.9183 6.08172 36.5 10.5 36.5H27.5C31.9183 36.5 35.5 32.9183 35.5 28.5V11.5C35.5 7.08172 31.9183 3.5 27.5 3.5H10.5ZM20.1293 20.5897V28.1954H17.0537V20.5929H14.5V17.6152H17.0537V15.4235C17.0537 12.8829 18.6062 11.5 20.8729 11.5C21.9589 11.5 22.8917 11.5815 23.1624 11.6174V14.2722H21.6002C20.3674 14.2722 20.1293 14.856 20.1293 15.7171V17.612H23.0776L22.6928 20.5897H20.1293Z" fill="black"/>
<path fill-rule="evenodd" clip-rule="evenodd" d="M10.5 56.5C6.08172 56.5 2.5 60.0817 2.5 64.5V81.5C2.5 85.9183 6.08172 89.5 10.5 89.5H27.5C31.9183 89.5 35.5 85.9183 35.5 81.5V64.5C35.5 60.0817 31.9183 56.5 27.5 56.5H10.5ZM18.8493 74.5192V71.6556H26.7355C26.8073 72.0698 26.866 72.4906 26.866 73.0385C26.866 77.81 23.6697 81.1986 18.8493 81.1986C14.2344 81.1986 10.5 77.4643 10.5 72.8493C10.5 68.2344 14.2344 64.5 18.8493 64.5C21.103 64.5 22.9881 65.3251 24.4427 66.6819L22.1793 68.8638C21.5563 68.267 20.4703 67.5788 18.8493 67.5788C16.0021 67.5788 13.6734 69.9368 13.6734 72.8493C13.6734 75.7618 15.9988 78.1198 18.8493 78.1198C22.1532 78.1198 23.3925 75.7487 23.5849 74.5192H18.8493Z" fill="black"/>
<mask id="path-3-inside-1_97_137" fill="white">
<path fill-rule="evenodd" clip-rule="evenodd" d="M10.5 109.5C6.08172 109.5 2.5 113.082 2.5 117.5V134.5C2.5 138.918 6.08172 142.5 10.5 142.5H27.5C31.9183 142.5 35.5 138.918 35.5 134.5V117.5C35.5 113.082 31.9183 109.5 27.5 109.5H10.5ZM22.2771 132.759H24.7558L24.7525 128.379C24.7525 126.23 24.2894 124.576 21.7781 124.576C20.5714 124.576 19.7625 125.238 19.4299 125.864H19.3972V124.775H17.0164V132.759H19.4951V128.809C19.4951 127.769 19.694 126.761 20.9856 126.761C22.2575 126.761 22.2771 127.952 22.2771 128.878V132.759ZM12.783 122.244C12.783 123.037 13.4223 123.682 14.2213 123.682C15.0138 123.682 15.6596 123.037 15.6596 122.244C15.6596 121.452 15.0171 120.806 14.2213 120.806C13.4255 120.806 12.783 121.452 12.783 122.244ZM12.9787 132.759H15.4639V124.775H12.9787V132.759ZM11.7361 118.5H25.9952C26.6735 118.5 27.2312 119.038 27.2312 119.707V134.025C27.2312 134.693 26.6735 135.231 25.9919 135.231H11.7361C11.0512 135.231 10.5 134.69 10.5 134.025V119.707C10.5 119.038 11.0544 118.5 11.7361 118.5Z"/>
</mask>
<path fill-rule="evenodd" clip-rule="evenodd" d="M10.5 109.5C6.08172 109.5 2.5 113.082 2.5 117.5V134.5C2.5 138.918 6.08172 142.5 10.5 142.5H27.5C31.9183 142.5 35.5 138.918 35.5 134.5V117.5C35.5 113.082 31.9183 109.5 27.5 109.5H10.5ZM22.2771 132.759H24.7558L24.7525 128.379C24.7525 126.23 24.2894 124.576 21.7781 124.576C20.5714 124.576 19.7625 125.238 19.4299 125.864H19.3972V124.775H17.0164V132.759H19.4951V128.809C19.4951 127.769 19.694 126.761 20.9856 126.761C22.2575 126.761 22.2771 127.952 22.2771 128.878V132.759ZM12.783 122.244C12.783 123.037 13.4223 123.682 14.2213 123.682C15.0138 123.682 15.6596 123.037 15.6596 122.244C15.6596 121.452 15.0171 120.806 14.2213 120.806C13.4255 120.806 12.783 121.452 12.783 122.244ZM12.9787 132.759H15.4639V124.775H12.9787V132.759ZM11.7361 118.5H25.9952C26.6735 118.5 27.2312 119.038 27.2312 119.707V134.025C27.2312 134.693 26.6735 135.231 25.9919 135.231H11.7361C11.0512 135.231 10.5 134.69 10.5 134.025V119.707C10.5 119.038 11.0544 118.5 11.7361 118.5Z" fill="black"/>
<path d="M24.7558 132.759V133.759H25.7565L25.7558 132.758L24.7558 132.759ZM22.2771 132.759H21.2771V133.759H22.2771V132.759ZM24.7525 128.379L23.7525 128.379L23.7525 128.38L24.7525 128.379ZM19.4299 125.864V126.864H20.031L20.313 126.334L19.4299 125.864ZM19.3972 125.864H18.3972V126.864H19.3972V125.864ZM19.3972 124.775H20.3972V123.775H19.3972V124.775ZM17.0164 124.775V123.775H16.0164V124.775H17.0164ZM17.0164 132.759H16.0164V133.759H17.0164V132.759ZM19.4951 132.759V133.759H20.4951V132.759H19.4951ZM15.4639 132.759V133.759H16.4639V132.759H15.4639ZM12.9787 132.759H11.9787V133.759H12.9787V132.759ZM15.4639 124.775H16.4639V123.775H15.4639V124.775ZM12.9787 124.775V123.775H11.9787V124.775H12.9787ZM3.5 117.5C3.5 113.634 6.63401 110.5 10.5 110.5V108.5C5.52944 108.5 1.5 112.529 1.5 117.5H3.5ZM3.5 134.5V117.5H1.5V134.5H3.5ZM10.5 141.5C6.63401 141.5 3.5 138.366 3.5 134.5H1.5C1.5 139.471 5.52944 143.5 10.5 143.5V141.5ZM27.5 141.5H10.5V143.5H27.5V141.5ZM34.5 134.5C34.5 138.366 31.366 141.5 27.5 141.5V143.5C32.4706 143.5 36.5 139.471 36.5 134.5H34.5ZM34.5 117.5V134.5H36.5V117.5H34.5ZM27.5 110.5C31.366 110.5 34.5 113.634 34.5 117.5H36.5C36.5 112.529 32.4706 108.5 27.5 108.5V110.5ZM10.5 110.5H27.5V108.5H10.5V110.5ZM24.7558 131.759H22.2771V133.759H24.7558V131.759ZM23.7525 128.38L23.7558 132.76L25.7558 132.758L25.7525 128.378L23.7525 128.38ZM21.7781 125.576C22.7872 125.576 23.1607 125.887 23.361 126.205C23.628 126.628 23.7525 127.326 23.7525 128.379H25.7525C25.7525 127.282 25.6455 126.079 25.0532 125.138C24.394 124.092 23.2803 123.576 21.7781 123.576V125.576ZM20.313 126.334C20.4811 126.017 20.96 125.576 21.7781 125.576V123.576C20.1828 123.576 19.044 124.459 18.5467 125.395L20.313 126.334ZM19.3972 126.864H19.4299V124.864H19.3972V126.864ZM18.3972 124.775V125.864H20.3972V124.775H18.3972ZM17.0164 125.775H19.3972V123.775H17.0164V125.775ZM18.0164 132.759V124.775H16.0164V132.759H18.0164ZM19.4951 131.759H17.0164V133.759H19.4951V131.759ZM18.4951 128.809V132.759H20.4951V128.809H18.4951ZM20.9856 125.761C20.5328 125.761 20.1033 125.85 19.7239 126.06C19.3388 126.273 19.0656 126.577 18.8808 126.911C18.5372 127.533 18.4951 128.27 18.4951 128.809H20.4951C20.4951 128.308 20.5524 128.021 20.6312 127.879C20.6576 127.831 20.6763 127.819 20.6917 127.81C20.7129 127.798 20.7926 127.761 20.9856 127.761V125.761ZM23.2771 128.878C23.2771 128.458 23.285 127.727 23.0379 127.104C22.903 126.763 22.6759 126.407 22.2962 126.142C21.9142 125.875 21.4633 125.761 20.9856 125.761V127.761C21.1438 127.761 21.1723 127.796 21.1518 127.782C21.1335 127.769 21.1497 127.768 21.1787 127.841C21.2112 127.923 21.2408 128.052 21.2582 128.246C21.2754 128.437 21.2771 128.644 21.2771 128.878H23.2771ZM23.2771 132.759V128.878H21.2771V132.759H23.2771ZM14.2213 122.682C13.9775 122.682 13.783 122.487 13.783 122.244H11.783C11.783 123.586 12.867 124.682 14.2213 124.682V122.682ZM14.6596 122.244C14.6596 122.484 14.4616 122.682 14.2213 122.682V124.682C15.5661 124.682 16.6596 123.589 16.6596 122.244H14.6596ZM14.2213 121.806C14.4634 121.806 14.6596 122.002 14.6596 122.244H16.6596C16.6596 120.901 15.5709 119.806 14.2213 119.806V121.806ZM13.783 122.244C13.783 122.002 13.9793 121.806 14.2213 121.806V119.806C12.8718 119.806 11.783 120.901 11.783 122.244H13.783ZM15.4639 131.759H12.9787V133.759H15.4639V131.759ZM14.4639 124.775V132.759H16.4639V124.775H14.4639ZM12.9787 125.775H15.4639V123.775H12.9787V125.775ZM13.9787 132.759V124.775H11.9787V132.759H13.9787ZM25.9952 117.5H11.7361V119.5H25.9952V117.5ZM28.2312 119.707C28.2312 118.46 27.1996 117.5 25.9952 117.5V119.5C26.1475 119.5 26.2312 119.616 26.2312 119.707H28.2312ZM28.2312 134.025V119.707H26.2312V134.025H28.2312ZM25.9919 136.231C27.1978 136.231 28.2312 135.273 28.2312 134.025H26.2312C26.2312 134.113 26.1492 134.231 25.9919 134.231V136.231ZM11.7361 136.231H25.9919V134.231H11.7361V136.231ZM9.5 134.025C9.5 135.263 10.5199 136.231 11.7361 136.231V134.231C11.5825 134.231 11.5 134.117 11.5 134.025H9.5ZM9.5 119.707V134.025H11.5V119.707H9.5ZM11.7361 117.5C10.5267 117.5 9.5 118.462 9.5 119.707H11.5C11.5 119.615 11.5822 119.5 11.7361 119.5V117.5Z" fill="black" mask="url(#path-3-inside-1_97_137)"/>
</svg>
